<svg width="1440" height="800" viewBox="0 0 1440 800" fill="none" xmlns="http://www.w3.org/2000/svg">
<g clip-path="url(#clip0_4007_8992)">
<rect width="1440" height="800" fill="white"/>
<g clip-path="url(#clip1_4007_8992)">
<g clip-path="url(#clip2_4007_8992)">
<line x1="48.5" x2="48.5" y2="1440" stroke="#D0D5DD"/>
<line x1="144.5" x2="144.5" y2="1440" stroke="#D0D5DD"/>
<line x1="240.5" x2="240.5" y2="1440" stroke="#D0D5DD"/>
<line x1="336.5" x2="336.5" y2="1440" stroke="#D0D5DD"/>
<line x1="432.5" x2="432.5" y2="1440" stroke="#D0D5DD"/>
<line x1="528.5" x2="528.5" y2="1440" stroke="#D0D5DD"/>
<line x1="624.5" x2="624.5" y2="1440" stroke="#D0D5DD"/>
<line x1="720.5" x2="720.5" y2="1440" stroke="#D0D5DD"/>
<line x1="816.5" x2="816.5" y2="1440" stroke="#D0D5DD"/>
<line x1="912.5" x2="912.5" y2="1440" stroke="#D0D5DD"/>
<line x1="1008.5" x2="1008.5" y2="1440" stroke="#D0D5DD"/>
<line x1="1104.5" x2="1104.5" y2="1440" stroke="#D0D5DD"/>
<line x1="1200.5" x2="1200.5" y2="1440" stroke="#D0D5DD"/>
<line x1="1296.5" x2="1296.5" y2="1440" stroke="#D0D5DD"/>
<line x1="1392.5" x2="1392.5" y2="1440" stroke="#D0D5DD"/>
</g>
<g clip-path="url(#clip3_4007_8992)">
<line x1="-240" y1="95.5" x2="1680" y2="95.5" stroke="#D0D5DD"/>
<line x1="-240" y1="191.5" x2="1680" y2="191.5" stroke="#D0D5DD"/>
<line x1="-240" y1="287.5" x2="1680" y2="287.5" stroke="#D0D5DD"/>
<line x1="-240" y1="383.5" x2="1680" y2="383.5" stroke="#D0D5DD"/>
<line x1="-240" y1="479.5" x2="1680" y2="479.5" stroke="#D0D5DD"/>
<line x1="-240" y1="575.5" x2="1680" y2="575.5" stroke="#D0D5DD"/>
<line x1="-240" y1="671.5" x2="1680" y2="671.5" stroke="#D0D5DD"/>
<line x1="-240" y1="767.5" x2="1680" y2="767.5" stroke="#D0D5DD"/>
</g>
</g>
</g>
<defs>
<clipPath id="clip0_4007_8992">
<rect width="1440" height="800" fill="white"/>
</clipPath>
<clipPath id="clip1_4007_8992">
<rect width="1920" height="1440" fill="white" transform="translate(-240)"/>
</clipPath>
<clipPath id="clip2_4007_8992">
<rect width="1920" height="1440" fill="white" transform="translate(-240)"/>
</clipPath>
<clipPath id="clip3_4007_8992">
<rect width="1920" height="1440" fill="white" transform="translate(-240)"/>
</clipPath>
</defs>
</svg>
