<svg width="488" height="247" viewBox="0 0 488 247" fill="none" xmlns="http://www.w3.org/2000/svg">
<path d="M287.304 20.0484L287.376 21.4465C285.796 21.6217 284.622 21.9627 283.854 22.4697C283.086 22.9767 282.59 23.7734 282.365 24.8598C282.185 25.8971 282.145 27.3712 282.244 29.282L284.354 70.1075C283.981 70.1267 283.609 70.146 283.236 70.1653C282.863 70.1846 282.467 70.205 282.047 70.2267L250.181 28.6966L251.915 62.2518C252.017 64.2092 252.236 65.7399 252.573 66.844C252.908 67.9014 253.554 68.6391 254.51 69.0569C255.466 69.4748 256.904 69.7042 258.822 69.7452L258.894 71.1434C258.003 71.0959 256.859 71.1084 255.461 71.1806C254.107 71.2039 252.824 71.2469 251.613 71.3095C250.448 71.3698 249.284 71.4533 248.121 71.5601C246.956 71.6204 246.003 71.7164 245.262 71.8481L245.19 70.45C246.72 70.2307 247.871 69.8908 248.642 69.4304C249.41 68.9234 249.906 68.1267 250.13 67.0404C250.354 65.954 250.418 64.4787 250.322 62.6146L248.609 29.4788C248.52 27.7544 248.315 26.5034 247.994 25.7255C247.671 24.9011 247.106 24.3696 246.3 24.1309C245.491 23.8456 244.316 23.7194 242.775 23.7524L242.703 22.3542C243.451 22.3623 244.409 22.3595 245.577 22.3459C246.744 22.3322 247.91 22.2953 249.076 22.2351C250.101 22.182 251.102 22.1069 252.078 22.0097C253.054 21.9125 253.914 21.8214 254.657 21.7362L282.06 56.9083L280.65 29.6447C280.547 27.6407 280.304 26.1112 279.922 25.0562C279.587 23.9987 278.942 23.2611 277.986 22.8432C277.027 22.3788 275.613 22.1481 273.744 22.1513L273.672 20.7532C274.513 20.7564 275.634 20.7452 277.035 20.7195C278.435 20.6938 279.741 20.6497 280.953 20.587C282.118 20.5268 283.282 20.4432 284.445 20.3364C285.607 20.2296 286.56 20.1336 287.304 20.0484ZM306.509 81.8593C303.899 81.9942 301.462 81.8632 299.199 81.4662C296.982 81.0668 295.17 80.366 293.763 79.364C292.405 78.4062 291.684 77.1117 291.6 75.4805C291.52 73.9426 292.103 72.5573 293.348 71.3248C294.592 70.0922 296.387 69.1115 298.733 68.3828L299.28 69.476C298.323 69.946 297.589 70.6616 297.078 71.6226C296.613 72.5811 296.41 73.6197 296.468 74.7382C296.574 76.7888 297.611 78.324 299.58 79.3437C301.548 80.3634 304.094 80.7925 307.217 80.6311C309.314 80.5227 311.28 80.1407 313.115 79.485C315 78.8736 316.493 77.9319 317.595 76.66C318.744 75.3856 319.27 73.793 319.171 71.8822C319.094 70.3909 318.493 69.1603 317.368 68.1904C316.245 67.2671 314.099 66.8874 310.93 67.0513L306.037 67.3042C304.406 67.3886 302.884 67.3271 301.471 67.1197C300.059 66.9124 298.889 66.4355 297.963 65.689C297.08 64.8934 296.601 63.75 296.524 62.2587C296.437 60.5809 297.054 58.9602 298.375 57.3966C299.696 55.833 301.974 54.2433 305.208 52.6275L306.079 53.2132C304.766 54.0288 303.594 54.8604 302.564 55.7081C301.577 56.5068 301.112 57.4654 301.17 58.5839C301.247 60.0752 302.358 60.7655 304.502 60.6546L312.82 60.2246C316.036 60.0583 318.844 60.5907 321.244 61.8218C323.642 63.0062 324.92 65.1364 325.079 68.2123C325.192 70.4027 324.576 72.4906 323.23 74.4761C321.933 76.5058 319.893 78.1767 317.111 79.4887C314.331 80.8474 310.797 81.6376 306.509 81.8593ZM305.479 53.805C301.891 53.9906 298.816 53.2617 296.254 51.6184C293.692 49.9751 292.313 47.2427 292.115 43.4212C291.915 39.553 293.005 36.6696 295.383 34.7709C297.761 32.8722 300.745 31.8301 304.334 31.6446C307.969 31.4567 311.044 32.1856 313.559 33.8312C316.12 35.4745 317.501 38.2302 317.701 42.0984C317.899 45.92 316.808 48.7801 314.43 50.6787C312.098 52.575 309.114 53.6171 305.479 53.805ZM305.414 52.5467C307.045 52.4624 308.267 51.6983 309.081 50.2543C309.894 48.8104 310.204 46.2243 310.011 42.4959C309.819 38.7676 309.243 36.2272 308.286 34.8749C307.325 33.4759 306.03 32.8186 304.399 32.9029C302.861 32.9825 301.663 33.7687 300.806 35.2616C299.946 36.7079 299.612 39.2953 299.805 43.0236C299.998 46.752 300.596 49.2911 301.601 50.6411C302.605 51.991 303.876 52.6262 305.414 52.5467ZM314.983 36.9819L313.7 36.5576C314.268 34.8927 315.313 33.4135 316.835 32.1198C318.357 30.8262 319.98 30.1348 321.704 30.0456C323.009 29.9782 324.054 30.298 324.838 31.0051C325.666 31.6632 326.114 32.6448 326.182 33.9497C326.256 35.3944 325.913 36.4402 325.152 37.087C324.438 37.7314 323.661 38.0753 322.822 38.1187C322.077 38.1572 321.364 37.937 320.685 37.4581C320.053 36.9768 319.663 36.2026 319.514 35.1355C319.363 34.0218 319.639 32.5823 320.342 30.817L321.126 31.0569C319.3 31.8989 317.966 32.7623 317.124 33.6469C316.326 34.4826 315.612 35.5942 314.983 36.9819ZM338.876 67.499C335.801 67.658 333.524 67.0047 332.046 65.539C330.613 64.0243 329.833 62.0553 329.708 59.6319C329.604 57.6279 329.986 55.9726 330.853 54.6661C331.72 53.3596 332.856 52.2729 334.259 51.4059C335.707 50.4899 337.232 49.7101 338.835 49.0666C340.481 48.374 342.014 47.734 343.432 47.1467C344.894 46.5103 346.073 45.8185 346.969 45.0712C347.912 44.3216 348.355 43.4108 348.3 42.3389L348.054 37.5852C347.968 35.9075 347.619 34.5937 347.009 33.6439C346.444 32.6451 345.684 31.9601 344.73 31.5889C343.823 31.2152 342.74 31.0609 341.482 31.1259C340.41 31.1814 339.277 31.4035 338.082 31.7924C336.885 32.1347 335.959 32.7666 335.306 33.6882C336.346 33.9149 337.214 34.4307 337.909 35.2359C338.649 35.992 339.051 36.9759 339.113 38.1877C339.181 39.4926 338.791 40.5408 337.944 41.3322C337.144 42.1213 336.091 42.5495 334.786 42.617C333.342 42.6917 332.247 42.3043 331.502 41.455C330.755 40.559 330.35 39.5052 330.287 38.2935C330.222 37.0352 330.472 35.9942 331.037 35.1706C331.648 34.3446 332.449 33.5556 333.438 32.8035C334.518 32 335.907 31.2974 337.605 30.6956C339.349 30.0914 341.293 29.7338 343.437 29.623C345.441 29.5194 347.177 29.6633 348.646 30.0546C350.159 30.397 351.43 31.0322 352.46 31.9603C353.68 32.9719 354.519 34.2837 354.976 35.8956C355.431 37.4609 355.717 39.3853 355.835 41.6689L356.833 60.9632C356.891 62.0817 357.073 62.89 357.379 63.3882C357.685 63.8864 358.211 64.1162 358.957 64.0777C359.516 64.0488 360.021 63.8825 360.473 63.5787C360.924 63.275 361.374 62.9247 361.82 62.5278L362.581 63.68C361.643 64.5229 360.674 65.2039 359.672 65.7229C358.718 66.2396 357.472 66.5376 355.934 66.6171C353.37 66.7497 351.638 66.2317 350.737 65.0634C349.882 63.8926 349.39 62.5162 349.261 60.9341C348.028 63.2875 346.502 64.9552 344.684 65.9371C342.909 66.8699 340.974 67.3906 338.876 67.499ZM342.548 63.9447C343.76 63.882 344.931 63.4944 346.062 62.7817C347.191 62.0224 348.226 60.8006 349.167 59.1165L348.448 45.2051C347.846 46.2175 346.885 47.0616 345.565 47.7373C344.291 48.4106 342.975 49.1563 341.615 49.9742C340.3 50.7431 339.184 51.7588 338.268 53.0211C337.352 54.2834 336.949 55.9865 337.06 58.1303C337.169 60.2275 337.738 61.7401 338.767 62.6682C339.796 63.5963 341.057 64.0218 342.548 63.9447ZM333.532 10.2285C334.156 9.63553 334.914 9.38605 335.807 9.48009C336.746 9.57171 337.588 10.0422 338.333 10.8915C339.078 11.7409 339.761 12.757 340.383 13.9398C341.005 15.1226 341.756 16.5324 342.635 18.1692C343.558 19.7569 344.78 21.7031 346.301 24.0077L345.564 24.6766C343.552 22.818 341.794 21.3435 340.289 20.253C338.831 19.1602 337.567 18.2209 336.498 17.435C335.476 16.6467 334.545 15.807 333.705 14.9159C332.957 14.0199 332.585 13.1513 332.589 12.31C332.638 11.4663 332.953 10.7725 333.532 10.2285ZM395.501 27.9126L395.574 29.3108C394.695 29.4964 393.904 30.0046 393.199 30.8354C392.492 31.6196 391.837 32.9619 391.235 34.8622L381.84 64.647L380.249 66.4115L364.951 34.8893C363.971 33.1175 363.053 32.0668 362.194 31.7374C361.38 31.3589 360.694 31.1841 360.135 31.213L360.059 29.745C361.231 29.8246 362.472 29.8772 363.782 29.903C365.089 29.8821 366.442 29.8355 367.84 29.7633C369.425 29.6813 371.007 29.5528 372.586 29.3777C374.213 29.2001 375.723 29.0286 377.116 28.8631L377.192 30.3312C376.073 30.389 375.076 30.534 374.2 30.7662C373.369 30.9494 372.832 31.4211 372.591 32.1812C372.394 32.8923 372.69 34.092 373.478 35.7802L383.249 56.6536L382.77 56.8886L388.862 37.7886C389.743 34.9393 389.756 32.9293 388.901 31.7585C388.093 30.5854 386.495 29.967 384.109 29.9035L384.037 28.5053C385.204 28.4917 386.255 28.4841 387.19 28.4825C388.171 28.4785 389.174 28.45 390.199 28.397C391.225 28.344 392.179 28.2713 393.062 28.1789C393.992 28.0841 394.805 27.9954 395.501 27.9126ZM381.84 64.647L379.663 71.3483C378.898 73.7243 377.98 75.4073 376.91 76.3972C376.245 77.0858 375.406 77.5964 374.396 77.929C373.385 78.2617 372.367 78.4545 371.341 78.5075C370.363 78.5581 369.421 78.4199 368.516 78.0928C367.66 77.8099 366.935 77.3334 366.34 76.6633C365.744 75.9931 365.42 75.1454 365.367 74.1201C365.304 72.9084 365.65 71.9092 366.404 71.1226C367.157 70.336 368.187 69.9089 369.492 69.8414C370.657 69.7812 371.651 70.0335 372.475 70.5984C373.301 71.2099 373.745 72.1216 373.808 73.3333C373.851 74.1721 373.655 74.9066 373.221 75.5365C372.832 76.1641 372.297 76.659 371.615 77.0214C371.757 77.0608 371.898 77.0768 372.038 77.0696C372.178 77.0624 372.294 77.0564 372.388 77.0515C373.693 76.9841 374.835 76.4811 375.814 75.5426C376.796 74.6507 377.587 73.2313 378.188 71.2844L380.357 64.4432L381.84 64.647Z" fill="#CB94A8"/>
<path d="M233.674 204.065C235.259 203.983 236.784 204.115 238.251 204.46C239.715 204.758 241.001 205.229 242.109 205.872C243.264 206.513 244.146 207.309 244.756 208.259C245.412 209.206 245.77 210.262 245.831 211.427C245.903 212.826 245.563 213.941 244.812 214.775C244.061 215.608 243.056 216.057 241.798 216.122C240.539 216.187 239.473 215.892 238.598 215.236C237.723 214.58 237.251 213.6 237.184 212.295C237.121 211.083 237.42 210.087 238.081 209.305C238.739 208.476 239.528 207.922 240.448 207.64C239.992 206.963 239.217 206.419 238.121 206.008C237.069 205.549 235.937 205.35 234.725 205.413C233.467 205.478 232.272 205.867 231.141 206.579C230.056 207.29 229.106 208.344 228.29 209.741C227.475 211.138 226.843 212.923 226.394 215.096C225.992 217.266 225.87 219.866 226.026 222.895C226.229 226.81 226.833 229.91 227.839 232.194C228.889 234.43 230.185 235.998 231.727 236.9C233.269 237.801 234.902 238.207 236.626 238.118C238.258 238.034 239.958 237.479 241.727 236.453C243.494 235.38 244.941 233.53 246.066 230.901L247.42 231.322C246.987 232.886 246.252 234.49 245.215 236.132C244.225 237.772 242.871 239.151 241.153 240.267C239.436 241.384 237.295 242.009 234.732 242.141C231.796 242.293 229.102 241.708 226.65 240.386C224.199 239.065 222.203 237.065 220.663 234.388C219.12 231.664 218.245 228.298 218.038 224.29C217.835 220.375 218.359 216.937 219.607 213.975C220.9 210.964 222.764 208.601 225.199 206.887C227.633 205.172 230.459 204.232 233.674 204.065ZM282.918 201.73L284.432 231.021C284.54 233.118 284.971 234.661 285.723 235.65C286.519 236.59 287.872 237.011 289.783 236.912L289.859 238.38C288.407 238.315 286.959 238.32 285.514 238.395C283.976 238.474 282.512 238.62 281.121 238.832C279.73 239.044 278.461 239.367 277.316 239.8L276.922 232.18C275.901 235.036 274.374 237.125 272.339 238.445C270.349 239.716 268.212 240.411 265.928 240.529C264.204 240.618 262.722 240.437 261.484 239.987C260.248 239.584 259.214 239.007 258.381 238.255C257.494 237.367 256.85 236.208 256.449 234.78C256.045 233.306 255.786 231.45 255.67 229.213L254.759 211.597C254.651 209.5 254.222 207.98 253.472 207.037C252.72 206.048 251.365 205.604 249.408 205.705L249.332 204.237C250.831 204.3 252.279 204.295 253.677 204.223C255.215 204.143 256.68 203.997 258.071 203.785C259.459 203.527 260.727 203.204 261.876 202.818L263.321 230.78C263.391 232.132 263.548 233.362 263.792 234.471C264.037 235.58 264.525 236.442 265.258 237.059C265.991 237.675 267.126 237.943 268.664 237.864C271.088 237.739 273.059 236.562 274.58 234.334C276.1 232.106 276.78 229.43 276.618 226.308L275.801 210.509C275.693 208.412 275.264 206.892 274.514 205.949C273.762 204.96 272.407 204.516 270.45 204.617L270.374 203.149C271.873 203.212 273.321 203.207 274.719 203.135C276.257 203.055 277.722 202.91 279.112 202.697C280.501 202.439 281.769 202.116 282.918 201.73ZM267.086 197.852L266.887 194.007C268.76 193.163 270.067 192.231 270.808 191.211C271.594 190.142 271.952 188.932 271.882 187.581C271.808 186.136 271.352 185.015 270.517 184.217C269.681 183.419 268.564 183.056 267.166 183.128C266.653 183.155 266.075 183.255 265.429 183.428C264.784 183.602 264.309 183.907 264.005 184.343C264.76 184.491 265.385 184.832 265.88 185.368C266.373 185.856 266.641 186.52 266.684 187.359C266.737 188.384 266.453 189.216 265.832 189.856C265.255 190.447 264.477 190.767 263.498 190.818C262.566 190.866 261.783 190.626 261.148 190.098C260.511 189.524 260.167 188.747 260.116 187.768C260.068 186.836 260.306 186.006 260.829 185.278C261.352 184.55 261.951 183.935 262.626 183.433C263.212 183.029 264.011 182.66 265.022 182.328C266.077 181.946 267.28 181.72 268.632 181.651C271.009 181.528 273.016 181.938 274.653 182.881C276.289 183.778 277.153 185.135 277.247 186.953C277.341 188.77 276.511 190.332 274.756 191.638C273.045 192.894 270.899 193.87 268.318 194.564L268.484 197.78L267.086 197.852ZM302.594 238.142C299.519 238.301 297.242 237.648 295.764 236.182C294.331 234.668 293.551 232.699 293.426 230.275C293.322 228.271 293.704 226.616 294.571 225.31C295.438 224.003 296.574 222.916 297.977 222.049C299.425 221.133 300.951 220.354 302.553 219.71C304.199 219.017 305.732 218.377 307.15 217.79C308.612 217.154 309.791 216.462 310.687 215.715C311.63 214.965 312.073 214.054 312.018 212.982L311.772 208.229C311.686 206.551 311.337 205.237 310.727 204.287C310.162 203.289 309.402 202.604 308.448 202.232C307.541 201.859 306.458 201.704 305.2 201.769C304.128 201.825 302.995 202.047 301.8 202.436C300.603 202.778 299.677 203.41 299.024 204.332C300.064 204.558 300.932 205.074 301.627 205.879C302.367 206.635 302.769 207.619 302.831 208.831C302.899 210.136 302.509 211.184 301.662 211.976C300.862 212.765 299.809 213.193 298.504 213.26C297.06 213.335 295.965 212.948 295.22 212.098C294.473 211.202 294.068 210.149 294.005 208.937C293.94 207.679 294.19 206.638 294.755 205.814C295.366 204.988 296.167 204.199 297.156 203.447C298.236 202.643 299.625 201.941 301.323 201.339C303.067 200.735 305.011 200.377 307.155 200.266C309.159 200.163 310.895 200.307 312.364 200.698C313.877 201.04 315.148 201.676 316.178 202.604C317.398 203.615 318.237 204.927 318.694 206.539C319.149 208.104 319.435 210.029 319.553 212.312L320.551 231.607C320.609 232.725 320.791 233.533 321.097 234.032C321.403 234.53 321.929 234.76 322.675 234.721C323.234 234.692 323.739 234.526 324.191 234.222C324.642 233.918 325.092 233.568 325.538 233.171L326.299 234.323C325.361 235.166 324.392 235.847 323.391 236.366C322.436 236.883 321.19 237.181 319.652 237.261C317.088 237.393 315.356 236.875 314.455 235.707C313.6 234.536 313.108 233.16 312.979 231.577C311.746 233.931 310.22 235.599 308.402 236.58C306.627 237.513 304.692 238.034 302.594 238.142ZM306.266 234.588C307.478 234.525 308.649 234.138 309.781 233.425C310.909 232.666 311.944 231.444 312.885 229.76L312.166 215.848C311.564 216.861 310.603 217.705 309.283 218.381C308.009 219.054 306.693 219.8 305.333 220.618C304.018 221.387 302.902 222.402 301.986 223.664C301.07 224.927 300.668 226.63 300.778 228.774C300.887 230.871 301.456 232.384 302.485 233.312C303.514 234.24 304.775 234.665 306.266 234.588ZM381.301 183.956C381.216 185.924 381.175 187.842 381.178 189.711C381.225 191.53 381.274 192.93 381.325 193.909C381.38 194.98 381.456 196.005 381.554 196.981C381.651 197.957 381.741 198.794 381.824 199.49L380.216 199.573C379.569 196.102 378.798 193.385 377.902 191.422C377.053 189.456 375.883 188.068 374.392 187.258C372.902 186.447 370.805 186.111 368.102 186.251L365.096 186.406L367.156 226.253C367.252 228.117 367.488 229.507 367.862 230.422C368.283 231.335 369.015 231.928 370.057 232.201C371.143 232.426 372.691 232.532 374.7 232.522L374.772 233.92C373.462 233.894 371.782 233.935 369.731 234.041C367.678 234.1 365.58 234.185 363.436 234.296C361.199 234.412 359.08 234.545 357.078 234.695C355.121 234.796 353.539 234.924 352.332 235.08L352.26 233.682C354.259 233.485 355.764 233.221 356.775 232.888C357.783 232.509 358.449 231.844 358.774 230.892C359.099 229.941 359.213 228.533 359.117 226.669L357.056 186.822L353.981 186.981C351.371 187.116 349.343 187.665 347.897 188.627C346.452 189.59 345.408 191.092 344.766 193.135C344.124 195.178 343.66 197.959 343.375 201.478L341.767 201.561C341.824 200.857 341.827 200.016 341.777 199.037C341.773 198.056 341.743 197.03 341.688 195.958C341.637 194.979 341.518 193.583 341.331 191.771C341.188 189.909 340.973 188.004 340.685 186.056C342.692 185.999 344.884 185.933 347.264 185.856C349.643 185.78 352.044 185.679 354.468 185.554C356.891 185.429 359.081 185.315 361.039 185.214C362.996 185.113 365.163 185.001 367.54 184.878C369.917 184.755 372.316 184.608 374.737 184.436C377.158 184.264 379.346 184.104 381.301 183.956ZM400.311 195.45C403.433 195.289 406.24 195.798 408.731 196.978C411.222 198.157 413.262 200.108 414.851 202.829C416.44 205.551 417.352 209.172 417.585 213.693C417.819 218.213 417.286 221.909 415.986 224.78C414.683 227.604 412.854 229.732 410.498 231.162C408.14 232.546 405.399 233.318 402.277 233.48C399.201 233.639 396.395 233.153 393.86 232.022C391.323 230.845 389.26 228.919 387.674 226.244C386.131 223.52 385.243 219.898 385.009 215.377C384.775 210.856 385.285 207.162 386.539 204.293C387.839 201.422 389.69 199.27 392.093 197.838C394.495 196.405 397.235 195.609 400.311 195.45ZM400.383 196.848C397.959 196.974 396.051 198.474 394.658 201.35C393.262 204.179 392.725 208.716 393.048 214.961C393.371 221.206 394.373 225.664 396.053 228.334C397.73 230.958 399.781 232.207 402.204 232.081C404.581 231.959 406.469 230.506 407.867 227.723C409.309 224.892 409.869 220.353 409.546 214.108C409.223 207.863 408.199 203.407 406.472 200.739C404.789 198.023 402.76 196.726 400.383 196.848ZM400.075 175.977C401.225 178.347 402.908 180.62 405.124 182.795C407.383 184.921 409.902 186.637 412.679 187.942L412.171 188.949C409.566 188.29 407.023 187.44 404.539 186.4C402.055 185.36 400.014 184.297 398.416 183.212C397.265 184.44 395.74 185.687 393.843 186.953C391.993 188.217 390.086 189.297 388.123 190.193L387.513 189.243C390.141 187.658 392.446 185.693 394.428 183.348C396.454 180.953 397.916 178.518 398.816 176.042L400.075 175.977ZM429.071 177.281C430.515 177.207 431.751 177.61 432.778 178.491C433.802 179.326 434.35 180.42 434.42 181.771C434.489 183.123 434.059 184.29 433.129 185.272C432.196 186.208 431.007 186.714 429.562 186.789C428.117 186.863 426.883 186.483 425.858 185.648C424.831 184.767 424.283 183.65 424.213 182.299C424.143 180.947 424.575 179.803 425.508 178.867C426.438 177.885 427.626 177.356 429.071 177.281ZM434.136 193.912L435.705 224.251C435.806 226.209 436.247 227.518 437.029 228.178C437.857 228.836 439.18 229.118 440.998 229.024L441.074 230.492C440.279 230.487 439.042 230.504 437.362 230.544C435.726 230.535 434.045 230.575 432.321 230.665C430.69 230.749 429.015 230.882 427.295 231.065C425.573 231.2 424.294 231.313 423.457 231.403L423.382 229.935C425.199 229.841 426.463 229.425 427.172 228.688C427.928 227.948 428.256 226.599 428.155 224.642L427.02 202.691C426.911 200.594 426.482 199.074 425.733 198.131C424.981 197.142 423.626 196.698 421.668 196.799L421.593 195.331C423.091 195.394 424.539 195.389 425.938 195.317C427.522 195.235 428.987 195.089 430.331 194.88C431.719 194.621 432.988 194.298 434.136 193.912Z" fill="#CB94A8"/>
<path d="M73.6463 99.3107L73.7702 101.707C71.31 102.155 68.9545 103.078 66.7037 104.476C64.4529 105.874 62.2454 108.111 60.0814 111.187L38.4826 141.983L40.8155 135.975L71.6588 174.754C73.1202 176.681 74.6788 178.163 76.3345 179.198C77.9902 180.234 80.0729 181.008 82.5826 181.519L82.7065 183.916C80.7808 183.855 78.3799 183.899 75.5037 184.048C72.7034 184.112 70.3045 184.196 68.3072 184.3C66.949 184.37 65.2733 184.497 63.2801 184.68C61.3626 184.779 58.93 184.985 55.9822 185.297L55.8583 182.901C58.5664 182.6 60.2593 182.032 60.9371 181.196C61.6148 180.36 61.267 179.056 59.8937 177.285L41.0341 151.825C39.3082 149.43 37.7751 147.667 36.4348 146.535C35.1704 145.319 33.8487 144.546 32.4699 144.217C31.1709 143.883 29.5207 143.728 27.5192 143.752L27.3953 141.355C30.7467 141.101 33.5099 140.318 35.685 139.004C37.9358 137.605 39.7706 135.909 41.1895 133.913L51.9383 118.697C54.4013 115.206 56.0522 112.276 56.8912 109.91C57.7301 107.543 57.5993 105.788 56.4987 104.643C55.394 103.419 53.1618 102.853 49.8022 102.947L49.6783 100.55C51.9993 100.51 54.3603 100.468 56.7612 100.424C59.1622 100.38 61.4012 100.304 63.4785 100.197C67.8726 99.9697 71.2619 99.6743 73.6463 99.3107ZM35.5372 101.281L35.6611 103.678C32.9488 103.898 30.8881 104.325 29.479 104.959C28.1456 105.508 27.2764 106.514 26.8713 107.977C26.4622 109.36 26.334 111.53 26.4869 114.486L29.5599 173.926C29.7086 176.803 30.0598 178.947 30.6135 180.361C31.1672 181.774 32.1355 182.685 33.5185 183.094C34.9814 183.499 37.0751 183.711 39.7998 183.731L39.9237 186.128C38.0779 186.063 35.7568 186.103 32.9606 186.247C30.2401 186.308 27.4817 186.41 24.6854 186.555C21.5696 186.716 18.6555 186.907 15.9433 187.127C13.2269 187.267 11.034 187.461 9.36448 187.707L9.24057 185.311C11.9487 185.01 13.9694 184.586 15.3028 184.036C16.7161 183.482 17.6253 182.474 18.0303 181.011C18.4353 179.548 18.5635 177.379 18.4148 174.503L15.3418 115.062C15.1889 112.106 14.8377 109.961 14.2881 108.628C13.7344 107.214 12.7262 106.305 11.2633 105.9C9.8762 105.411 7.82239 105.197 5.10189 105.258L4.97798 102.861C6.65987 102.854 8.86106 102.82 11.5816 102.76C14.3021 102.699 17.2202 102.588 20.3361 102.427C23.1323 102.283 25.8866 102.1 28.5988 101.88C31.391 101.655 33.7038 101.456 35.5372 101.281ZM138.869 119.13L138.993 121.526C137.484 121.765 136.121 122.516 134.904 123.781C133.688 125.045 132.599 127.224 131.637 130.318L114.648 182.865L112.61 182.971L87.8152 131.021C86.1362 127.984 84.5211 126.185 82.9701 125.624C81.4948 124.98 80.2779 124.682 79.3191 124.732L79.189 122.215C80.9591 122.364 82.807 122.469 84.7327 122.529C86.6542 122.51 88.7335 122.443 90.9705 122.327C93.4472 122.199 96.0396 121.985 98.7477 121.685C101.536 121.38 104.124 121.086 106.513 120.802L106.643 123.319C104.645 123.422 102.856 123.675 101.275 124.077C99.7691 124.395 98.8537 125.284 98.5286 126.743C98.1993 128.121 98.8005 130.454 100.332 133.739L116.962 169.528L116.256 169.805L128.071 133.386C129.382 129.313 129.398 126.509 128.117 124.973C126.836 123.437 124.07 122.618 119.819 122.518L119.695 120.121C121.776 120.093 123.498 120.085 124.86 120.094C126.303 120.1 127.943 120.055 129.78 119.96C131.618 119.865 133.253 119.74 134.687 119.586C136.201 119.428 137.595 119.276 138.869 119.13ZM114.648 182.865L111.112 193.502C109.797 197.495 108.223 200.38 106.393 202.157C105.176 203.422 103.7 204.299 101.963 204.789C100.23 205.36 98.6444 205.682 97.2063 205.756C95.6883 205.835 94.2758 205.627 92.9685 205.134C91.7412 204.637 90.7391 203.848 89.9623 202.766C89.1895 201.765 88.7639 200.505 88.6855 198.987C88.5863 197.07 89.065 195.483 90.1216 194.227C91.1823 193.05 92.7113 192.411 94.7086 192.307C96.3864 192.221 97.8492 192.626 99.0972 193.522C100.345 194.419 101.017 195.786 101.112 197.624C101.182 198.982 100.92 200.117 100.326 201.029C99.7327 201.941 99.0088 202.659 98.1548 203.184C98.3187 203.255 98.4406 203.289 98.5205 203.285C98.6803 203.277 98.8001 203.271 98.88 203.267C101.037 203.155 102.915 202.297 104.515 200.692C106.118 199.167 107.474 196.734 108.583 193.392L112.321 182.024L114.648 182.865ZM108.432 111.451L108.092 104.86C111.301 103.412 113.542 101.814 114.813 100.066C116.16 98.2342 116.774 96.1598 116.654 93.8429C116.534 91.526 115.798 89.6815 114.446 88.3095C113.093 86.9375 111.218 86.3135 108.821 86.4374C108.022 86.4787 107.07 86.6481 105.964 86.9456C104.858 87.2431 104.006 87.8079 103.408 88.6399C104.539 88.8217 105.486 89.3335 106.251 90.1751C107.011 90.9369 107.427 91.9968 107.497 93.355C107.583 95.0328 107.132 96.3779 106.143 97.3903C105.15 98.3228 103.895 98.8283 102.377 98.9068C100.859 98.9853 99.5975 98.6099 98.5934 97.7806C97.5851 96.8715 97.0417 95.6579 96.9632 94.1399C96.8847 92.622 97.2539 91.2411 98.0708 89.9972C98.9676 88.7493 100.034 87.6928 101.271 86.8277C102.121 86.2231 103.373 85.6377 105.026 85.0716C106.755 84.4214 108.737 84.0386 110.974 83.9229C114.729 83.7288 117.929 84.4045 120.572 85.9501C123.295 87.4915 124.735 89.7802 124.892 92.8162C125.053 95.932 123.709 98.605 120.861 100.835C118.088 102.981 114.649 104.641 110.544 105.814L110.829 111.327L108.432 111.451ZM210.394 113.75C213.43 113.593 215.968 113.862 218.006 114.558C220.125 115.249 221.9 116.279 223.333 117.647C224.934 119.166 226.115 121.108 226.878 123.472C227.641 125.835 228.128 129.054 228.339 133.129L229.993 165.126C230.167 168.482 230.963 170.724 232.384 171.852C233.884 172.976 236.271 173.453 239.547 173.284L239.677 175.8C238.315 175.791 236.234 175.818 233.433 175.883C230.629 175.868 227.908 175.928 225.272 176.065C222.635 176.201 220.043 176.415 217.494 176.707C215.022 176.915 213.149 177.092 211.874 177.238L211.744 174.721C214.62 174.573 216.627 173.868 217.763 172.608C218.9 171.347 219.381 169.039 219.208 165.684L217.417 131.05C217.289 128.573 216.972 126.307 216.465 124.25C215.958 122.194 214.952 120.563 213.448 119.359C212.024 118.151 209.874 117.622 206.998 117.77C201.964 118.031 197.999 120.358 195.102 124.754C192.281 129.065 191.029 134.297 191.348 140.449L192.723 167.053C192.896 170.409 193.613 172.655 194.874 173.791C196.134 174.927 198.202 175.421 201.078 175.273L201.209 177.789C199.926 177.775 198.005 177.795 195.444 177.847C192.959 177.815 190.398 177.868 187.762 178.004C185.125 178.14 182.413 178.36 179.625 178.665C176.833 178.889 174.76 179.077 173.406 179.227L173.276 176.71C176.551 176.541 178.837 175.822 180.133 174.553C181.51 173.28 182.111 170.966 181.937 167.611L179.998 130.101C179.812 126.506 179.037 123.902 177.672 122.29C176.303 120.599 173.86 119.844 170.345 120.026L170.215 117.509C172.784 117.617 175.267 117.608 177.664 117.484C179.981 117.365 182.171 117.131 184.236 116.784C186.377 116.353 188.312 115.813 190.04 115.162L190.771 129.303C192.568 123.763 195.25 119.86 198.817 117.592C202.461 115.241 206.32 113.96 210.394 113.75ZM253.834 83.146C255.911 83.0386 257.748 83.7047 259.344 85.1442C260.941 86.5837 261.793 88.342 261.9 90.4192C262.008 92.4965 261.342 94.3333 259.902 95.9298C258.463 97.5262 256.704 98.3781 254.627 98.4855C252.55 98.5929 250.713 97.9269 249.116 96.4874C247.52 95.0479 246.668 93.2895 246.561 91.2123C246.453 89.1351 247.119 87.2982 248.559 85.7018C249.998 84.1053 251.757 83.2534 253.834 83.146ZM261.546 111.466L264.229 163.356C264.403 166.712 265.199 168.954 266.619 170.082C268.119 171.206 270.507 171.683 273.783 171.514L273.913 174.031C272.551 174.021 270.469 174.048 267.669 174.113C264.944 174.094 262.184 174.156 259.388 174.301C256.671 174.441 253.919 174.664 251.131 174.968C248.339 175.192 246.266 175.38 244.912 175.53L244.782 173.013C248.057 172.844 250.343 172.125 251.639 170.856C253.016 169.584 253.617 167.269 253.443 163.914L251.504 126.404C251.318 122.809 250.543 120.205 249.178 118.594C247.809 116.902 245.366 116.147 241.851 116.329L241.721 113.812C244.29 113.92 246.773 113.912 249.17 113.788C251.487 113.668 253.677 113.434 255.742 113.087C257.883 112.656 259.818 112.116 261.546 111.466ZM305.865 108.814C312.895 108.45 318.48 110.325 322.617 114.436C326.831 118.464 329.171 124.992 329.638 134.02L287.334 136.207L287.097 133.936L318.016 132.338C317.973 128.415 317.467 124.836 316.499 121.602C315.527 118.288 314.11 115.677 312.249 113.771C310.468 111.86 308.219 110.975 305.503 111.116C301.828 111.306 298.647 113.313 295.961 117.136C293.355 120.956 291.979 126.875 291.833 134.893L292.217 135.354C292.119 136.561 292.067 137.885 292.062 139.327C292.056 140.769 292.091 142.21 292.165 143.648C292.446 149.08 293.566 153.709 295.526 157.533C297.486 161.357 299.918 164.235 302.822 166.167C305.801 168.016 308.809 168.862 311.845 168.705C315.44 168.519 318.71 167.469 321.655 165.554C324.6 163.64 326.996 160.392 328.842 155.81L331.288 156.645C330.546 159.327 329.24 161.958 327.37 164.538C325.501 167.118 323.09 169.285 320.137 171.04C317.179 172.715 313.703 173.656 309.708 173.862C303.956 174.16 298.934 173.097 294.644 170.676C290.433 168.25 287.089 164.778 284.613 160.26C282.212 155.658 280.854 150.321 280.54 144.249C280.177 137.218 280.984 131.128 282.96 125.979C284.933 120.75 287.887 116.673 291.821 113.746C295.751 110.739 300.432 109.095 305.865 108.814ZM305.132 76.048C306.936 79.9601 309.693 83.7027 313.403 87.276C317.188 90.7652 321.457 93.5485 326.211 95.6258L325.339 97.3531C320.946 96.0582 316.657 94.4375 312.471 92.491C308.285 90.5446 304.858 88.5589 302.19 86.5339C300.304 88.7943 297.779 91.0877 294.615 93.4142C291.53 95.7365 288.35 97.7434 285.073 99.4349L284.027 97.8067C288.541 95.2502 292.461 92.0435 295.786 88.1867C299.187 84.2459 301.584 80.2368 302.975 76.1595L305.132 76.048ZM311.103 193.857C309.185 193.956 307.514 193.402 306.09 192.193C304.67 191.065 303.908 189.503 303.805 187.505C303.71 185.668 304.226 184.039 305.355 182.619C306.567 181.274 308.252 180.546 310.409 180.435C312.566 180.323 314.279 180.916 315.547 182.212C316.896 183.504 317.618 185.069 317.713 186.906C317.816 188.904 317.179 190.539 315.803 191.811C314.507 193.08 312.94 193.762 311.103 193.857ZM376.913 105.141C379.709 104.996 382.167 105.27 384.285 105.961C386.404 106.653 388.179 107.682 389.612 109.05C391.212 110.57 392.358 112.593 393.05 115.121C393.741 117.649 394.184 120.79 394.378 124.545L396.032 156.542C396.206 159.898 397.003 162.14 398.423 163.268C399.923 164.392 402.311 164.869 405.586 164.7L405.716 167.216C404.354 167.207 402.273 167.234 399.472 167.299C396.668 167.284 393.947 167.344 391.311 167.481C388.674 167.617 386.082 167.831 383.534 168.123C381.061 168.331 379.188 168.508 377.914 168.654L377.783 166.137C380.66 165.988 382.666 165.284 383.802 164.024C384.939 162.763 385.42 160.455 385.247 157.1L383.456 122.466C383.328 119.989 383.051 117.721 382.624 115.66C382.197 113.599 381.311 111.963 379.967 110.751C378.622 109.538 376.512 109.007 373.636 109.155C370.52 109.316 367.773 110.42 365.396 112.465C363.098 114.506 361.317 117.242 360.052 120.672C358.864 124.018 358.374 127.728 358.585 131.803L359.961 158.407C360.134 161.763 360.851 164.009 362.111 165.145C363.372 166.281 365.44 166.775 368.316 166.627L368.446 169.143C367.164 169.129 365.242 169.149 362.681 169.201C360.197 169.169 357.636 169.221 354.999 169.358C352.363 169.494 349.651 169.714 346.863 170.019C344.07 170.243 341.997 170.431 340.643 170.581L340.513 168.064C343.789 167.895 346.075 167.176 347.371 165.907C348.747 164.634 349.348 162.32 349.175 158.965L347.236 121.455C347.05 117.86 346.274 115.256 344.909 113.644C343.54 111.953 341.098 111.198 337.583 111.38L337.453 108.863C340.022 108.971 342.504 108.962 344.901 108.838C347.218 108.719 349.409 108.485 351.474 108.138C353.614 107.707 355.549 107.166 357.278 106.516L358.009 120.657C359.818 115.357 362.462 111.495 365.941 109.072C369.421 106.65 373.078 105.339 376.913 105.141ZM412.985 103.276C415.781 103.131 418.239 103.405 420.357 104.096C422.476 104.788 424.251 105.818 425.684 107.185C427.284 108.705 428.43 110.728 429.122 113.256C429.813 115.784 430.256 118.925 430.45 122.68L432.104 154.677C432.278 158.033 433.074 160.275 434.495 161.403C435.995 162.527 438.383 163.004 441.658 162.835L441.788 165.352C440.426 165.342 438.345 165.369 435.544 165.434C432.74 165.419 430.019 165.479 427.383 165.616C424.746 165.752 422.154 165.966 419.605 166.258C417.133 166.466 415.26 166.643 413.985 166.789L413.855 164.272C416.731 164.124 418.738 163.419 419.874 162.159C421.011 160.898 421.492 158.59 421.319 155.235L419.528 120.601C419.4 118.124 419.123 115.856 418.696 113.795C418.269 111.734 417.383 110.098 416.039 108.886C414.694 107.673 412.584 107.142 409.708 107.29C405.074 107.53 401.306 109.808 398.405 114.123C395.584 118.434 394.333 123.666 394.651 129.818L393.715 118.691C395.587 113.067 398.309 109.161 401.881 106.974C405.449 104.707 409.15 103.474 412.985 103.276Z" fill="#CB94A8"/>
<g clip-path="url(#clip0_4043_230223)">
<path d="M367.574 84.3212C399.483 76.3477 433.818 89.2916 464.824 76.2294C475.149 71.8802 488.522 63.8476 486.91 50.8741C485.682 41.0663 476.155 35.4746 467.753 41.5693C467.013 42.1019 467.723 43.3297 468.463 42.7971C479.454 34.8237 488.138 47.9747 484.942 57.8712C482.649 65.0015 474.528 69.898 468.3 73.0933C458.137 78.3004 446.673 80.3566 435.356 80.9188C412.545 82.0578 389.779 77.5904 367.338 83.5372C366.82 83.6703 367.042 84.4839 367.56 84.3508H367.574V84.3212Z" fill="#CB94A8"/>
</g>
<g clip-path="url(#clip1_4043_230223)">
<path d="M81.7417 197.547C70.9428 198.568 65.3067 209.382 69.7742 219.308C73.9754 228.627 88.9459 229.648 97.6886 229.589C131.224 229.352 164.671 214.308 195.5 202.68C210.693 196.941 226.018 190.639 242.009 187.473C243.311 187.222 242.764 185.225 241.462 185.491C226.684 188.405 212.394 194.396 198.37 199.722C180.382 206.541 162.423 213.538 144.035 219.234C127.704 224.308 110.1 229.234 92.8217 228.169C86.5051 227.784 77.8068 226.541 72.9695 221.97C64.4191 213.864 71.1647 199.411 81.7565 198.272C82.2299 198.228 82.2299 197.488 81.7565 197.532L81.7417 197.547Z" fill="#CB94A8"/>
</g>
<defs>
<clipPath id="clip0_4043_230223">
<rect width="119.986" height="45.3111" fill="white" transform="translate(367.055 39.025)"/>
</clipPath>
<clipPath id="clip1_4043_230223">
<rect width="174.513" height="44.1276" fill="white" transform="translate(68.2344 185.476)"/>
</clipPath>
</defs>
</svg>
