<svg width="473" height="249" viewBox="0 0 473 249" fill="none" xmlns="http://www.w3.org/2000/svg">
<path d="M339.632 66.6948C338.928 66.6377 337.963 66.5007 336.737 66.2837C335.513 66.1133 334.252 65.6878 332.956 65.0072C331.659 64.3266 330.528 63.2402 329.563 61.748C328.6 60.3025 328.054 58.3214 327.924 55.8047C327.774 52.9153 328.193 49.716 329.18 46.2071C330.211 42.6491 331.491 38.9381 333.02 35.0739C334.549 31.2098 336.011 27.396 337.405 23.6323C338.512 20.6312 339.025 18.3616 338.946 16.8237C338.866 15.2857 338.244 14.5469 337.079 14.6071C335.774 14.6746 333.871 15.8244 331.369 18.0565C328.912 20.2396 326.091 23.5163 322.906 27.8866C322.078 29.0509 321.017 30.6711 319.722 32.7474C318.425 34.7771 317.047 37.0446 315.588 39.5499C314.126 42.0087 312.69 44.5128 311.28 47.0624C309.914 49.5629 308.702 51.8686 307.642 53.9794C306.63 56.0878 305.899 57.7612 305.449 58.9994C304.918 60.4754 304.269 61.4903 303.503 62.0439C302.74 62.6441 302.009 62.9623 301.31 62.9984C300.704 63.0297 300.159 62.8943 299.676 62.5922C299.24 62.2876 299.01 61.9024 298.986 61.4363C298.971 61.1567 299.029 60.92 299.159 60.7264C299.41 60.1527 300.086 58.7626 301.187 56.5562C302.288 54.3497 303.516 51.4358 304.87 47.8143C306.223 44.1463 307.476 39.9226 308.631 35.1432C309.83 30.3149 310.631 25.0165 311.034 19.248C311.093 18.5907 311.104 17.8892 311.065 17.1436C310.981 15.5124 310.64 14.3385 310.042 13.6217C309.442 12.8583 308.676 12.5008 307.744 12.5489C306.718 12.602 305.576 13.1049 304.317 14.0579C303.058 15.0108 301.796 16.3611 300.531 18.1087C298.353 21.1653 296.443 23.9977 294.802 26.6059C293.159 29.1675 291.655 31.7218 290.292 34.269C288.975 36.8137 287.666 39.5215 286.366 42.3925C285.112 45.261 283.784 48.4839 282.38 52.0612C280.973 55.5918 279.363 59.6938 277.549 64.367C277.261 65.1296 276.729 65.6944 275.954 66.0616C275.225 66.4264 274.535 66.6257 273.882 66.6594C273.23 66.6931 272.686 66.581 272.253 66.3231C271.819 66.0651 271.658 65.6762 271.772 65.1563C272.887 63.2295 274.07 60.8085 275.321 57.8934C276.573 54.9782 277.81 51.8068 279.035 48.379C280.304 44.9021 281.455 41.408 282.489 37.8967C283.566 34.3363 284.468 30.9953 285.195 27.8736C285.919 24.7053 286.385 21.9709 286.593 19.6704C286.648 18.92 286.681 18.2173 286.694 17.5624C286.707 16.9075 286.698 16.2772 286.667 15.6713C286.481 12.0828 285.58 9.55929 283.962 8.10085C282.391 6.64001 280.417 5.97102 278.041 6.0939C276.037 6.19751 273.87 6.77679 271.542 7.83176C269.257 8.83772 266.944 10.1956 264.603 11.9055C262.308 13.6129 260.119 15.5718 258.037 17.7823C255.953 19.9461 254.133 22.2598 252.579 24.7234C251.021 27.1403 249.862 29.5834 249.102 32.0526C248.586 33.8083 248.205 35.4869 247.961 37.0883C247.761 38.6407 247.696 40.0926 247.765 41.4442C247.9 44.054 248.481 46.2436 249.507 48.013C250.58 49.78 251.932 51.0886 253.565 51.9387C255.244 52.7865 257.016 53.1622 258.88 53.0658C259.533 53.0321 260.251 52.9248 261.036 52.744C261.866 52.5143 262.555 52.2917 263.105 52.0764C264.43 51.4939 265.694 50.6341 266.897 49.4972C268.097 48.3136 269.149 46.9741 270.053 45.4788C270.957 43.9835 271.65 42.4757 272.133 40.9554C272.615 39.4352 272.822 38.0226 272.755 36.7177C272.685 35.3661 272.254 34.2669 271.463 33.42C270.671 32.573 269.46 32.1917 267.829 32.2761C267.642 32.2857 267.434 32.3198 267.203 32.3785C267.017 32.3881 266.807 32.399 266.574 32.411L266.364 32.4219C266.038 32.4387 265.733 32.4078 265.448 32.329C265.161 32.2037 265.013 32.0478 265.004 31.8614C264.994 31.675 265.216 31.4532 265.67 31.1961C266.171 30.9365 267.074 30.7731 268.378 30.7056C270.476 30.5972 272.069 31.1456 273.16 32.3509C274.294 33.5072 274.911 35.0408 275.01 36.9515C275.099 38.6759 274.729 40.5642 273.901 42.6164C273.072 44.6685 271.773 46.6516 270.003 48.5655C268.233 50.4795 265.956 52.0925 263.173 53.4046C261.529 54.1438 259.915 54.5544 258.331 54.6363C256 54.7568 253.757 54.2886 251.599 53.232C249.439 52.1287 247.65 50.5155 246.232 48.3926C244.812 46.2231 244.023 43.6236 243.866 40.5943C243.796 39.2428 243.863 37.8142 244.065 36.3084C244.312 34.7535 244.743 33.1425 245.357 31.4752C246.71 27.8071 248.613 24.391 251.066 21.2268C253.563 18.0136 256.362 15.2053 259.462 12.8021C262.56 10.3522 265.731 8.41256 268.974 6.98318C272.218 5.55379 275.262 4.76561 278.105 4.61863C281.553 4.44034 284.449 5.31866 286.792 7.25361C289.182 9.18614 290.495 12.436 290.731 17.0033C290.748 17.3295 290.747 17.7734 290.73 18.3351C290.756 18.8477 290.753 19.2451 290.721 19.5271C290.564 21.9184 290.198 24.3205 289.622 26.7335C289.092 29.1441 288.488 31.465 287.809 33.6964C287.688 34.0765 287.592 34.4786 287.521 34.9029C287.493 35.2781 287.483 35.5356 287.491 35.6755C287.503 35.9085 287.555 36.0226 287.648 36.0178C287.835 36.0081 288.182 35.4995 288.691 34.4919C289.662 32.4791 290.529 30.7286 291.293 29.2405C292.102 27.7034 292.894 26.3073 293.67 25.0522C294.447 23.7971 295.291 22.5151 296.205 21.2062C297.119 19.8973 298.165 18.4413 299.344 16.8383C300.699 15.0393 302.283 13.5789 304.094 12.4573C305.905 11.3356 307.673 10.7302 309.397 10.641C310.935 10.5615 312.267 11.0067 313.391 11.9766C314.516 12.9465 315.143 14.6664 315.27 17.1364C315.285 17.4161 315.297 17.6491 315.307 17.8355C315.316 18.0219 315.307 18.3028 315.28 18.678C315.092 23.1737 314.434 27.6236 313.307 32.0277C312.177 36.3852 311.003 40.7917 309.784 45.2472C311.114 42.9355 312.924 39.9914 315.216 36.415C317.507 32.8386 320.026 29.1336 322.772 25.3C326.129 20.6405 329.288 17.1127 332.248 14.7167C335.208 12.3206 337.69 11.0708 339.694 10.9672C342.211 10.8371 343.549 12.31 343.708 15.3859C343.768 16.551 343.607 17.9612 343.226 19.6164C342.891 21.2693 342.304 23.0286 341.466 24.8943C340.547 26.9979 339.528 29.4338 338.409 32.2019C337.335 34.921 336.314 37.7775 335.347 40.7714C334.381 43.7653 333.598 46.703 332.999 49.5844C332.445 52.4168 332.229 55.0214 332.352 57.3982C332.484 59.9615 333.174 62.0053 334.421 63.5296C335.717 65.0981 337.831 65.7598 340.762 65.5148L341.182 65.4931C341.881 65.457 342.237 65.5787 342.252 65.8584C342.262 66.0448 342.038 66.2433 341.582 66.4538C341.125 66.6643 340.475 66.7446 339.632 66.6948ZM332.815 81.3463C330.391 81.4716 328.641 81.0714 327.566 80.1457C326.492 79.2666 325.922 78.1746 325.854 76.8697C325.818 76.1706 325.88 75.5599 326.04 75.0376C326.2 74.5154 326.446 73.8484 326.778 73.0369C327.36 71.6516 328.209 70.4395 329.323 69.4006C330.438 68.3617 331.655 67.5044 332.975 66.8286C335.341 65.5848 338.044 64.5339 341.083 63.6758C344.17 62.8153 347.113 61.8921 349.912 60.9063C350.718 59.3225 351.443 57.5327 352.088 55.5368C352.73 53.4942 353.306 51.5252 353.815 49.6297C354.322 47.6876 354.731 46.1011 355.041 44.8701C354.535 45.9243 353.877 47.22 353.069 48.7571C352.305 50.2452 351.423 51.716 350.423 53.1696C349.424 54.6231 348.319 55.8485 347.109 56.8456C345.945 57.8403 344.688 58.3726 343.336 58.4425C342.823 58.469 342.188 58.385 341.431 58.1906C340.719 57.9937 340.069 57.6068 339.478 57.0298C338.932 56.4039 338.626 55.4617 338.561 54.2034C338.498 52.9917 338.718 51.8121 339.219 50.6647C339.765 49.4683 340.266 48.3208 340.723 47.2224C340.584 47.2297 340.418 47.1915 340.227 47.1079C340.082 47.0219 340.005 46.8857 339.995 46.6993C339.986 46.5129 340.023 46.3241 340.106 46.1328C340.273 45.7504 340.463 45.3434 340.674 44.9119C340.885 44.4804 341.072 44.0268 341.234 43.5512C341.859 42.0703 342.487 40.6593 343.118 39.3182C343.748 37.9306 344.292 36.7108 344.752 35.659C345.211 34.6072 346.07 34.0488 347.329 33.9837L351.663 33.7597C351.351 34.0562 350.948 34.4041 350.455 34.8034C350.006 35.1537 349.59 35.6893 349.206 36.41C348.059 38.6189 347.071 40.7494 346.242 42.8016C345.412 44.8072 344.518 46.9562 343.562 49.2486C343.104 50.347 342.782 51.345 342.595 52.2425C342.408 53.14 342.331 53.915 342.365 54.5675C342.444 56.1054 342.997 56.8479 344.022 56.7949C345.14 56.7371 346.445 55.7584 347.936 53.8589C349.161 52.2535 350.372 50.3685 351.568 48.2038C352.809 45.9901 353.978 43.7335 355.074 41.4338C356.214 39.0851 357.201 36.9313 358.034 34.9723C358.494 33.9205 359.376 33.3609 360.681 33.2935L364.526 33.0947C363.222 34.0966 362.236 35.3626 361.568 36.8925C360.946 38.4199 360.252 40.3717 359.487 42.7477C358.641 45.3615 357.846 48.0662 357.103 50.8616C356.404 53.608 355.589 56.3838 354.66 59.1889C356.171 58.5967 357.855 57.7153 359.71 56.5446C361.612 55.3715 363.187 53.748 364.435 51.6741C365.425 50.0342 366.255 48.4726 366.926 46.9893C367.641 45.457 368.145 44.3561 368.438 43.6868C368.6 43.2111 368.844 42.9649 369.171 42.948C369.497 42.9311 369.671 43.1324 369.692 43.5519C369.704 43.7849 369.648 44.0448 369.522 44.3317C368.436 46.8178 367.447 48.925 366.555 50.6533C365.707 52.3327 364.732 53.8083 363.63 55.0803C362.571 56.3032 361.249 57.3996 359.664 58.3694C358.081 59.3858 356.055 60.4251 353.587 61.4873C352.572 63.5491 351.398 65.6893 350.064 67.9078C348.779 70.1705 347.276 72.2809 345.555 74.239C343.882 76.2414 341.981 77.8817 339.851 79.1601C337.77 80.4826 335.424 81.2114 332.815 81.3463ZM331.065 80.0349C332.602 79.9554 334.163 79.4074 335.746 78.391C337.329 77.3746 338.852 76.1042 340.315 74.58C341.781 73.1024 343.104 71.5853 344.286 70.0289C345.516 68.5167 346.498 67.1809 347.233 66.0214C347.449 65.6832 347.683 65.2505 347.937 64.7234C348.19 64.1963 348.444 63.6925 348.699 63.212C346.447 63.9359 343.964 64.7184 341.251 65.5597C338.586 66.4451 336.275 67.3823 334.317 68.3714C332.128 69.4192 330.449 70.8377 329.28 72.6272C328.064 74.419 327.491 75.9907 327.561 77.3422C327.604 78.1811 327.919 78.8424 328.505 79.3261C329.046 79.8589 329.899 80.0951 331.065 80.0349Z" fill="#BDA97A"/>
<path d="M261.733 228.059C260.661 228.115 259.562 228.101 258.436 228.019C255.481 227.798 253.269 227.048 251.801 225.769C250.378 224.441 249.625 222.984 249.543 221.4C249.454 219.675 250.119 218.076 251.538 216.6C253.003 215.123 255.134 214.312 257.931 214.167C259.795 214.071 261.841 214.339 264.07 214.971C265.017 215.203 266.184 215.633 267.572 216.262C269.004 216.842 270.413 217.447 271.801 218.076C273.189 218.705 274.266 219.21 275.033 219.591C276.98 217.481 278.749 215.077 280.338 212.378C281.972 209.63 283.504 206.723 284.934 203.659C286.362 200.548 287.812 197.412 289.284 194.252C290.756 191.091 292.303 188.021 293.925 185.04C295.591 182.01 297.456 179.226 299.521 176.69C297.021 175.324 294.282 174.32 291.305 173.68C288.372 172.99 285.368 172.725 282.292 172.884C281.127 172.944 279.942 173.076 278.737 173.278C277.579 173.478 276.401 173.726 275.201 174.022C270.915 175.178 267.334 176.858 264.457 179.063C261.578 181.221 259.432 183.552 258.019 186.055C256.651 188.509 256.022 190.808 256.133 192.952C256.215 194.536 256.706 195.913 257.608 197.081C258.51 198.249 259.836 199.045 261.587 199.469C262.864 199.776 263.969 199.906 264.901 199.858C266.439 199.779 267.752 199.407 268.839 198.743C269.97 198.031 270.908 197.188 271.652 196.215C272.396 195.242 272.932 194.303 273.259 193.398C273.632 192.491 273.828 191.756 273.846 191.195C273.829 190.868 274.03 190.694 274.45 190.673C275.102 190.639 275.379 191.022 275.28 191.821C275.143 193.698 274.529 195.365 273.436 196.823C272.341 198.235 270.998 199.379 269.408 200.256C267.815 201.086 266.157 201.545 264.432 201.635C263.314 201.692 262.139 201.566 260.908 201.256C258.726 200.621 256.842 199.434 255.256 197.693C253.715 195.904 252.88 193.751 252.75 191.234C252.622 188.764 253.31 186.252 254.813 183.697C256.361 181.094 258.901 178.696 262.432 176.504C265.964 174.312 270.644 172.645 276.473 171.503C278.416 171.122 280.389 170.88 282.393 170.776C285.702 170.605 288.961 170.834 292.171 171.462C295.428 172.088 298.516 173.073 301.436 174.418L303.079 172.3C303.479 171.906 304.038 171.409 304.755 170.812C305.518 170.211 306.283 169.635 307.048 169.081C307.814 168.527 308.38 168.171 308.745 168.012C309.339 167.748 309.823 167.606 310.195 167.586C310.475 167.572 310.618 167.635 310.626 167.774C310.643 168.101 310.29 168.516 309.569 169.021C309.119 169.371 308.719 169.766 308.368 170.204C308.015 170.596 307.751 170.914 307.576 171.156C306.928 172.171 306.409 172.992 306.021 173.62C305.68 174.245 305.208 175.064 304.606 176.076C309.041 178.698 312.726 182.199 315.663 186.579C318.598 190.914 320.214 195.97 320.513 201.749C320.576 202.961 320.57 204.2 320.495 205.465C320.369 208.462 319.694 211.208 318.467 213.701C317.241 216.194 315.576 218.336 313.472 220.127C311.415 221.916 309.081 223.322 306.471 224.344C303.909 225.411 301.184 226.02 298.294 226.169C297.222 226.224 296.147 226.21 295.068 226.126C290.471 225.802 286.658 225.252 283.627 224.474C280.645 223.74 278.01 222.942 275.723 222.079C271.663 225.794 266.999 227.787 261.733 228.059ZM296.997 224.133C300.726 223.941 303.97 222.978 306.731 221.247C309.536 219.466 311.757 217.225 313.393 214.524C315.029 211.823 315.932 208.949 316.102 205.903C316.183 204.777 316.196 203.655 316.138 202.536C315.875 197.456 314.541 192.899 312.137 188.865C309.776 184.781 306.751 181.409 303.062 178.75C301.178 182.071 299.233 185.583 297.228 189.285C295.27 192.984 293.287 196.662 291.28 200.317C289.27 203.925 287.294 207.275 285.351 210.366C283.455 213.455 281.648 216.025 279.932 218.076C279.62 218.373 279.222 218.814 278.739 219.4C278.299 219.936 277.831 220.381 277.336 220.734C279.577 221.599 282.116 222.356 284.953 223.004C287.79 223.651 291.105 224.041 294.896 224.172C295.318 224.197 295.669 224.202 295.949 224.188C296.275 224.171 296.624 224.153 296.997 224.133ZM260.083 225.972C262.653 225.979 265.038 225.552 267.236 224.691C269.432 223.783 271.45 222.58 273.288 221.083C271.569 220.378 269.826 219.65 268.059 218.9C266.288 218.104 264.43 217.406 262.483 216.805C261.203 216.451 260.074 216.299 259.095 216.35C257.37 216.439 256.091 216.996 255.256 218.02C254.419 218.998 254.03 220.07 254.09 221.235C254.155 222.493 254.704 223.61 255.736 224.584C256.765 225.512 258.214 225.975 260.083 225.972ZM339.796 221.5C339.285 221.573 338.697 221.487 338.03 221.241C337.363 220.995 336.754 220.512 336.203 219.793C335.698 219.072 335.411 218.035 335.341 216.684C335.283 215.565 335.423 214.203 335.761 212.597C335.247 213.511 334.581 214.643 333.763 215.994C332.943 217.298 332.045 218.466 331.071 219.498C330.228 220.383 329.421 221.032 328.648 221.446C327.875 221.859 327.162 222.083 326.51 222.117C325.298 222.18 324.292 221.694 323.491 220.661C322.687 219.581 322.239 218.155 322.148 216.384C322.052 214.52 322.408 212.376 323.217 209.951C324.026 207.526 325.413 204.977 327.378 202.306C328.645 200.605 330.209 199.215 332.069 198.138C333.973 197.011 335.858 196.4 337.722 196.304C338.794 196.248 339.829 196.382 340.827 196.704C341.822 196.979 342.713 197.494 343.5 198.248C343.843 198.557 344.026 198.922 344.047 199.341C344.062 199.621 343.957 199.86 343.734 200.058C343.51 200.257 343.21 200.319 342.832 200.245C342.235 198.64 341.098 197.881 339.42 197.968C338.628 198.009 337.732 198.312 336.734 198.878C335.192 199.799 333.609 201.259 331.983 203.259C330.404 205.257 329.039 207.313 327.886 209.429C327.715 209.718 327.439 210.27 327.061 211.084C326.729 211.895 326.402 212.8 326.08 213.798C325.757 214.796 325.55 215.765 325.459 216.704C325.427 216.986 325.414 217.197 325.421 217.337C325.426 217.43 325.435 217.593 325.447 217.826C325.526 219.364 326.149 220.103 327.314 220.043C328.712 219.97 330.243 218.863 331.908 216.721C333.043 215.167 334.057 213.549 334.952 211.867C335.846 210.186 336.758 208.386 337.687 206.469C338.321 205.174 338.919 204.092 339.481 203.222C340.044 202.352 340.884 201.888 342.003 201.83C342.516 201.803 343.032 201.847 343.552 201.96C344.072 202.073 344.609 202.069 345.163 201.947C344.81 202.339 344.333 203.065 343.734 204.124C343.181 205.18 342.589 206.379 341.957 207.72C341.325 209.061 340.765 210.422 340.276 211.802C339.786 213.183 339.45 214.368 339.268 215.359C339.236 215.641 339.186 216.041 339.12 216.558C339.099 217.073 339.095 217.448 339.107 217.681C339.175 218.985 339.582 219.619 340.327 219.58C341.073 219.542 341.842 219.058 342.635 218.129C343.475 217.198 344.281 216.058 345.052 214.71C345.823 213.361 346.525 212.017 347.157 210.676C347.786 209.288 348.288 208.164 348.664 207.303C348.827 206.828 349.094 206.58 349.467 206.561C349.7 206.549 349.825 206.706 349.842 207.032C349.849 207.172 349.793 207.432 349.672 207.812C349.173 209.006 348.566 210.369 347.851 211.901C347.133 213.387 346.344 214.853 345.485 216.299C344.622 217.699 343.703 218.892 342.726 219.877C341.793 220.813 340.816 221.354 339.796 221.5ZM340.977 243.589C338.554 243.714 336.804 243.314 335.728 242.388C334.655 241.509 334.084 240.417 334.017 239.112C333.98 238.413 334.042 237.802 334.202 237.28C334.362 236.758 334.608 236.091 334.94 235.279C335.522 233.894 336.371 232.682 337.486 231.643C338.6 230.604 339.817 229.747 341.138 229.071C343.503 227.827 346.206 226.776 349.246 225.918C352.332 225.058 355.275 224.134 358.074 223.149C358.88 221.565 359.606 219.775 360.25 217.779C360.892 215.737 361.468 213.767 361.977 211.872C362.485 209.93 362.893 208.343 363.203 207.112C362.697 208.167 362.04 209.462 361.231 210.999C360.467 212.487 359.585 213.958 358.586 215.412C357.586 216.865 356.481 218.091 355.271 219.088C354.108 220.083 352.85 220.615 351.498 220.685C350.986 220.711 350.351 220.627 349.593 220.433C348.882 220.236 348.231 219.849 347.64 219.272C347.094 218.646 346.788 217.704 346.723 216.446C346.661 215.234 346.88 214.054 347.381 212.907C347.927 211.711 348.428 210.563 348.886 209.465C348.746 209.472 348.58 209.434 348.389 209.35C348.244 209.264 348.167 209.128 348.158 208.942C348.148 208.755 348.185 208.566 348.269 208.375C348.436 207.993 348.625 207.586 348.836 207.154C349.048 206.723 349.235 206.269 349.397 205.793C350.021 204.313 350.649 202.902 351.281 201.561C351.91 200.173 352.454 198.953 352.914 197.901C353.374 196.85 354.233 196.291 355.491 196.226L359.825 196.002C359.513 196.298 359.111 196.646 358.617 197.046C358.168 197.396 357.752 197.932 357.369 198.652C356.221 200.861 355.233 202.992 354.405 205.044C353.574 207.049 352.68 209.198 351.724 211.491C351.267 212.589 350.945 213.587 350.757 214.485C350.57 215.382 350.493 216.157 350.527 216.81C350.607 218.348 351.159 219.09 352.184 219.037C353.303 218.979 354.607 218.001 356.098 216.101C357.323 214.496 358.534 212.611 359.731 210.446C360.972 208.232 362.14 205.976 363.236 203.676C364.376 201.327 365.363 199.174 366.196 197.215C366.656 196.163 367.538 195.603 368.843 195.536L372.688 195.337C371.385 196.339 370.399 197.605 369.73 199.135C369.108 200.662 368.415 202.614 367.65 204.99C366.804 207.604 366.009 210.308 365.265 213.104C364.566 215.85 363.752 218.626 362.822 221.431C364.334 220.839 366.017 219.958 367.872 218.787C369.774 217.614 371.349 215.99 372.597 213.916C373.587 212.276 374.418 210.715 375.089 209.232C375.804 207.699 376.308 206.598 376.6 205.929C376.762 205.453 377.007 205.207 377.333 205.19C377.659 205.173 377.833 205.375 377.855 205.794C377.867 206.027 377.81 206.287 377.685 206.574C376.598 209.06 375.609 211.167 374.717 212.896C373.87 214.575 372.894 216.051 371.792 217.323C370.734 218.545 369.412 219.642 367.826 220.612C366.244 221.628 364.218 222.667 361.749 223.73C360.734 225.791 359.56 227.932 358.226 230.15C356.941 232.413 355.438 234.523 353.717 236.481C352.045 238.484 350.144 240.124 348.013 241.402C345.932 242.725 343.587 243.454 340.977 243.589ZM339.227 242.277C340.765 242.198 342.325 241.65 343.908 240.633C345.491 239.617 347.014 238.347 348.478 236.822C349.943 235.345 351.267 233.828 352.448 232.271C353.678 230.759 354.661 229.423 355.395 228.264C355.611 227.925 355.846 227.493 356.099 226.966C356.352 226.439 356.606 225.935 356.862 225.454C354.61 226.178 352.127 226.961 349.413 227.802C346.749 228.687 344.437 229.625 342.479 230.614C340.29 231.661 338.611 233.08 337.442 234.869C336.226 236.661 335.653 238.233 335.723 239.584C335.767 240.423 336.081 241.085 336.667 241.568C337.208 242.101 338.062 242.337 339.227 242.277Z" fill="#BDA97A"/>
<path d="M187.226 175.985C186.019 175.887 184.365 175.652 182.263 175.28C180.165 174.988 178.004 174.259 175.781 173.092C173.558 171.925 171.619 170.063 169.965 167.505C168.315 165.027 167.378 161.63 167.155 157.316C166.899 152.363 167.617 146.878 169.308 140.863C171.076 134.764 173.27 128.402 175.892 121.778C178.513 115.153 181.019 108.615 183.409 102.163C185.306 97.0186 186.186 93.1279 186.05 90.4915C185.914 87.855 184.847 86.5884 182.85 86.6916C180.613 86.8073 177.35 88.7783 173.062 92.6048C168.849 96.3473 164.013 101.965 158.553 109.456C157.134 111.452 155.315 114.23 153.095 117.789C150.872 121.269 148.51 125.156 146.008 129.451C143.502 133.666 141.041 137.959 138.623 142.329C136.281 146.616 134.203 150.568 132.387 154.187C130.651 157.801 129.398 160.67 128.626 162.793C127.716 165.323 126.604 167.063 125.291 168.012C123.983 169.041 122.729 169.586 121.531 169.648C120.492 169.702 119.559 169.47 118.731 168.952C117.983 168.43 117.589 167.769 117.547 166.97C117.522 166.491 117.622 166.085 117.845 165.753C118.275 164.77 119.433 162.387 121.32 158.604C123.208 154.822 125.312 149.826 127.635 143.618C129.953 137.33 132.103 130.09 134.082 121.896C136.138 113.619 137.51 104.536 138.201 94.6475C138.303 93.5207 138.321 92.3182 138.255 91.0399C138.11 88.2436 137.525 86.2311 136.501 85.0024C135.472 83.6938 134.158 83.0807 132.56 83.1634C130.803 83.2542 128.845 84.1165 126.686 85.7501C124.527 87.3837 122.364 89.6985 120.196 92.6944C116.461 97.9342 113.188 102.79 110.375 107.261C107.558 111.652 104.98 116.031 102.643 120.398C100.385 124.76 98.1417 129.402 95.9128 134.324C93.7639 139.241 91.4861 144.766 89.0795 150.899C86.6688 156.951 83.9082 163.983 80.7976 171.994C80.3045 173.302 79.3932 174.27 78.064 174.899C76.8146 175.525 75.6306 175.866 74.5121 175.924C73.3936 175.982 72.4625 175.79 71.7187 175.348C70.9748 174.905 70.7 174.239 70.8943 173.347C72.8063 170.044 74.8347 165.894 76.9796 160.897C79.1244 155.899 81.2465 150.462 83.3459 144.586C85.5211 138.626 87.4945 132.636 89.2661 126.617C91.1134 120.513 92.6598 114.786 93.9051 109.434C95.1464 104.003 95.9454 99.3153 96.3023 95.3717C96.396 94.0851 96.4539 92.8805 96.4759 91.7579C96.498 90.6352 96.4822 89.5546 96.4285 88.516C96.1104 82.3642 94.565 78.0382 91.7922 75.5381C89.0993 73.0337 85.7156 71.8869 81.6411 72.0976C78.2057 72.2752 74.492 73.2682 70.5 75.0768C66.5838 76.8012 62.6187 79.1291 58.6047 82.0602C54.6706 84.9873 50.919 88.3454 47.3499 92.1348C43.7766 95.8442 40.6572 99.8105 37.9917 104.034C35.3221 108.177 33.3357 112.365 32.0325 116.598C31.1467 119.608 30.4944 122.485 30.0756 125.231C29.7325 127.892 29.6209 130.381 29.7407 132.698C29.972 137.172 30.9671 140.926 32.726 143.959C34.5649 146.988 36.8838 149.231 39.6828 150.689C42.5617 152.142 45.599 152.786 48.7947 152.621C49.9132 152.563 51.1453 152.379 52.4911 152.069C53.9127 151.675 55.0946 151.294 56.0368 150.925C58.3082 149.926 60.475 148.452 62.5372 146.503C64.5951 144.474 66.399 142.178 67.9487 139.615C69.4984 137.051 70.6866 134.466 71.5131 131.86C72.3397 129.254 72.6951 126.832 72.5795 124.595C72.4597 122.279 71.7214 120.394 70.3646 118.942C69.0079 117.49 66.9313 116.837 64.1351 116.981C63.8155 116.998 63.458 117.056 63.0627 117.157C62.7431 117.173 62.3836 117.192 61.9841 117.213L61.6246 117.231C61.0654 117.26 60.5419 117.207 60.0543 117.072C59.5626 116.857 59.3084 116.59 59.2919 116.27C59.2754 115.951 59.6563 115.571 60.4345 115.13C61.2927 114.685 62.8403 114.405 65.0773 114.289C68.6725 114.103 71.4047 115.043 73.2739 117.11C75.2188 119.092 76.276 121.721 76.4453 124.996C76.5981 127.952 75.9644 131.189 74.5442 134.707C73.1239 138.226 70.8965 141.625 67.8618 144.906C64.8272 148.187 60.9247 150.952 56.1545 153.202C53.3362 154.469 50.5688 155.173 47.8524 155.313C43.8578 155.52 40.0112 154.717 36.3127 152.906C32.6102 151.014 29.5433 148.249 27.1121 144.61C24.6769 140.89 23.325 136.434 23.0565 131.241C22.9367 128.924 23.0504 126.475 23.3976 123.894C23.8206 121.228 24.559 118.467 25.6128 115.608C27.9312 109.32 31.1932 103.464 35.3988 98.0397C39.6801 92.5313 44.4779 87.7171 49.7923 83.5973C55.1026 79.3975 60.5381 76.0724 66.099 73.622C71.6599 71.1717 76.8771 69.8205 81.7506 69.5685C87.6627 69.2629 92.6271 70.7686 96.6437 74.0856C100.74 77.3985 102.991 82.9698 103.396 90.7993C103.425 91.3586 103.424 92.1196 103.394 93.0825C103.439 93.9613 103.434 94.6425 103.379 95.1259C103.11 99.2253 102.482 103.343 101.494 107.48C100.586 111.612 99.5505 115.591 98.3865 119.416C98.1798 120.068 98.0152 120.757 97.8926 121.484C97.8457 122.128 97.8285 122.569 97.8409 122.809C97.8616 123.208 97.9518 123.404 98.1116 123.396C98.4311 123.379 99.0269 122.507 99.8989 120.78C101.563 117.329 103.05 114.329 104.36 111.778C105.746 109.142 107.104 106.749 108.435 104.598C109.765 102.446 111.214 100.248 112.78 98.0044C114.346 95.7605 116.14 93.2646 118.161 90.5166C120.485 87.4325 123.199 84.929 126.304 83.0062C129.409 81.0833 132.439 80.0455 135.395 79.8926C138.032 79.7563 140.314 80.5195 142.243 82.1821C144.171 83.8448 145.245 86.7933 145.464 91.0277C145.488 91.507 145.509 91.9065 145.526 92.226C145.542 92.5456 145.527 93.027 145.48 93.6703C145.158 101.377 144.03 109.006 142.097 116.556C140.16 124.025 138.147 131.579 136.059 139.217C138.337 135.255 141.441 130.208 145.37 124.077C149.298 117.946 153.616 111.594 158.323 105.022C164.079 97.0346 169.494 90.9869 174.568 86.8794C179.643 82.772 183.898 80.6294 187.333 80.4518C191.648 80.2288 193.941 82.7537 194.214 88.0267C194.317 90.024 194.041 92.4415 193.387 95.279C192.812 98.1125 191.807 101.128 190.37 104.327C188.794 107.933 187.047 112.109 185.13 116.854C183.288 121.515 181.539 126.412 179.881 131.545C178.224 136.677 176.882 141.713 175.856 146.653C174.905 151.508 174.535 155.973 174.746 160.048C174.973 164.442 176.156 167.946 178.294 170.559C180.515 173.248 184.139 174.382 189.164 173.962L189.883 173.925C191.081 173.863 191.693 174.072 191.718 174.551C191.734 174.871 191.351 175.211 190.569 175.572C189.786 175.933 188.672 176.07 187.226 175.985ZM198.275 162.076C195.319 162.229 192.593 161.408 190.097 159.615C187.681 157.817 186.371 154.961 186.169 151.046C185.983 147.451 186.664 143.571 188.211 139.405C189.754 135.16 191.803 131.409 194.358 128.153C196.535 125.317 199.015 122.945 201.801 121.039C204.586 119.133 207.257 118.113 209.813 117.981C211.571 117.89 213.114 118.291 214.442 119.184C215.854 120.152 216.609 121.595 216.708 123.513C216.812 125.51 216.166 127.746 214.772 130.222C213.378 132.697 211.337 135.045 208.648 137.267C207.495 138.208 206.02 139.125 204.224 140.019C202.428 140.913 200.625 141.687 198.817 142.341C197.004 142.916 195.498 143.234 194.3 143.296C193.95 144.275 193.617 145.574 193.3 147.193C193.063 148.807 192.988 150.453 193.074 152.131C193.178 154.128 193.67 155.905 194.552 157.462C195.433 159.018 196.952 159.741 199.11 159.629C201.746 159.493 204.104 158.61 206.182 156.981C208.261 155.351 210.081 153.375 211.643 151.051C213.201 148.647 214.48 146.258 215.478 143.883C216.557 141.504 217.415 139.497 218.051 137.862C218.472 136.719 219.083 136.127 219.882 136.086C220.281 136.065 220.491 136.254 220.512 136.654C220.528 136.973 220.429 137.379 220.214 137.871C219.22 140.325 218.153 142.944 217.016 145.726C215.874 148.429 214.486 151.024 212.852 153.512C211.214 155.919 209.194 157.906 206.792 159.473C204.469 161.035 201.63 161.902 198.275 162.076ZM195.027 141.095C196.146 141.038 198.003 140.541 200.598 139.606C203.189 138.591 205.515 137.109 207.577 135.16C209.56 133.215 211.054 131.135 212.061 128.92C213.064 126.625 213.526 124.718 213.448 123.201C213.357 121.443 212.672 120.597 211.394 120.663C210.435 120.713 209.15 121.42 207.538 122.785C205.927 124.15 203.961 126.415 201.641 129.579C200.223 131.575 198.892 133.726 197.649 136.033C196.407 138.341 195.533 140.028 195.027 141.095ZM208.233 161.681C210.896 155.856 213.399 150.039 215.742 144.23C218.081 138.341 220.477 132.77 222.929 127.517C224.378 124.558 225.593 122.493 226.574 121.32C227.63 120.064 229.077 119.388 230.915 119.293C231.554 119.26 232.239 119.345 232.971 119.548C233.698 119.67 234.421 119.713 235.14 119.676C235.62 119.651 235.977 119.593 236.213 119.5C235.127 120.197 233.772 121.869 232.146 124.517C230.517 127.084 228.868 130.054 227.2 133.424C225.531 136.795 224.053 139.955 222.763 142.906C224.186 140.99 225.649 139.072 227.152 137.152C228.735 135.227 230.481 133.375 232.392 131.594C234.071 129.985 235.824 128.252 237.651 126.395C239.553 124.454 241.43 122.795 243.281 121.418C245.133 120.04 246.777 119.315 248.215 119.24C248.775 119.211 249.136 119.233 249.3 119.304C250.851 119.865 251.664 120.864 251.738 122.302C251.763 122.782 251.6 123.511 251.25 124.49C250.352 127.261 249.139 130.127 247.61 133.09C246.156 135.969 244.785 138.883 243.496 141.834C244.62 140.334 246.007 138.5 247.657 136.332C249.387 134.16 251.13 132.227 252.885 130.534C254.56 128.845 256.71 127.052 259.336 125.154C261.961 123.256 264.559 121.6 267.129 120.185C269.7 118.77 271.784 118.022 273.382 117.939C273.941 117.91 274.343 117.929 274.586 117.997C274.586 117.997 274.188 118.819 273.392 120.462C272.592 122.025 271.578 124.12 270.352 126.747C269.202 129.29 268.022 132.035 266.813 134.981C265.599 137.847 264.501 140.628 263.519 143.322C262.613 145.932 262.045 148.125 261.816 149.899C261.63 150.95 261.56 151.915 261.606 152.794C261.672 154.072 261.955 154.898 262.455 155.273C262.955 155.648 263.484 155.821 264.044 155.792C265.641 155.709 267.236 154.786 268.827 153.021C270.418 151.257 271.913 149.177 273.311 146.781C274.785 144.302 276.063 141.913 277.146 139.614C278.224 137.235 279.012 135.432 279.51 134.204C279.944 133.301 280.4 132.837 280.88 132.812C281.359 132.787 281.615 133.094 281.648 133.733C281.669 134.133 281.572 134.578 281.357 135.07C280.493 136.957 279.448 139.214 278.222 141.841C277.076 144.464 275.728 147.057 274.178 149.62C272.625 152.104 270.852 154.238 268.862 156.023C266.947 157.724 264.831 158.635 262.515 158.755C260.837 158.841 259.09 158.371 257.275 157.343C255.539 156.312 254.593 154.278 254.436 151.242C254.349 149.564 254.603 147.508 255.198 145.074C255.675 143.447 256.419 141.566 257.43 139.431C258.521 137.292 259.835 134.821 261.373 132.018C262.101 130.618 262.445 129.519 262.404 128.72C262.354 127.762 261.85 127.307 260.891 127.357C260.092 127.398 258.995 127.855 257.598 128.728C256.281 129.598 254.635 131.085 252.661 133.189C251.445 134.454 250.014 136.21 248.368 138.458C246.797 140.622 245.197 142.988 243.568 145.555C241.938 148.123 240.546 150.638 239.392 153.101C238.237 155.564 237.508 157.724 237.204 159.583C236.005 159.644 235.022 159.215 234.253 158.293C233.48 157.292 233.059 156.112 232.989 154.754C232.976 154.514 232.964 154.274 232.951 154.035C232.939 153.795 232.965 153.513 233.028 153.19C233.299 150.692 233.819 148.342 234.586 146.14C235.353 143.937 236.236 141.649 237.235 139.274C238.027 137.551 238.813 135.708 239.593 133.745C240.368 131.702 240.729 130.161 240.676 129.123C240.642 128.484 240.386 128.176 239.907 128.201C239.348 128.23 238.452 128.717 237.219 129.662C235.982 130.527 234.298 132.056 232.169 134.249C230.271 136.269 227.976 139.152 225.286 142.896C222.676 146.635 219.864 151.908 216.851 158.712C216.418 159.616 215.887 160.204 215.26 160.477C214.63 160.669 213.635 160.801 212.277 160.871C211.398 160.917 210.679 160.954 210.12 160.983C209.485 161.096 208.856 161.328 208.233 161.681ZM286.193 157.05C283.157 157.207 280.868 156.324 279.327 154.401C277.781 152.398 276.932 149.918 276.779 146.962C276.594 143.367 277.238 139.569 278.714 135.567C280.122 131.81 281.985 128.349 284.305 125.185C286.625 122.021 289.175 119.446 291.956 117.459C294.733 115.393 297.48 114.29 300.197 114.15C303.232 113.993 305.521 114.876 307.062 116.799C308.604 118.722 309.453 121.201 309.61 124.237C309.8 127.912 309.155 131.71 307.676 135.632C306.828 137.839 305.594 140.306 303.973 143.033C302.347 145.681 300.472 148.141 298.346 150.413C298.871 151.268 299.589 151.991 300.501 152.585C301.409 153.099 302.622 153.317 304.14 153.238C306.057 153.139 307.814 152.247 309.409 150.563C311.084 148.874 312.583 146.874 313.905 144.562C315.223 142.171 316.382 139.788 317.381 137.413C318.379 135.039 319.201 133.114 319.846 131.638C320.061 131.147 320.448 130.886 321.007 130.857C321.326 130.841 321.574 130.988 321.751 131.3C321.923 131.531 321.904 131.933 321.693 132.504C321.275 133.727 320.569 135.566 319.575 138.021C318.576 140.396 317.344 142.903 315.878 145.542C314.408 148.101 312.68 150.313 310.694 152.178C308.708 154.043 306.436 155.042 303.88 155.174C302.122 155.265 300.589 155.064 299.282 154.571C297.971 153.998 296.893 153.292 296.049 152.455C294.437 153.82 292.811 154.905 291.17 155.711C289.53 156.517 287.871 156.963 286.193 157.05ZM287.854 154.32C290.011 154.209 292.274 153.051 294.644 150.845C293.955 149.92 293.424 148.946 293.051 147.924C292.677 146.901 292.468 145.951 292.423 145.072C292.348 143.634 292.604 142.379 293.189 141.308C293.855 140.232 294.906 139.657 296.344 139.582C297.383 139.529 298.243 139.885 298.923 140.651C299.679 141.333 300.082 142.153 300.132 143.112C300.144 143.351 300.117 143.593 300.049 143.837C300.057 143.997 300.028 144.198 299.96 144.442C301.223 142.534 302.39 140.311 303.461 137.773C305.804 131.964 306.88 127.222 306.69 123.547C306.595 121.709 306.161 120.29 305.389 119.288C304.616 118.287 303.511 117.823 302.073 117.898C300.395 117.984 298.594 118.799 296.671 120.34C294.828 121.877 293.05 123.892 291.336 126.383C289.703 128.871 288.283 131.628 287.078 134.654C285.94 137.437 285.038 140.127 284.371 142.725C283.78 145.239 283.532 147.414 283.627 149.252C283.709 150.85 284.095 152.112 284.784 153.037C285.472 153.963 286.496 154.391 287.854 154.32ZM334.849 154.654C333.331 154.733 331.782 154.212 330.202 153.092C328.618 151.893 327.754 149.894 327.61 147.098C327.498 144.941 327.889 142.438 328.783 139.588C329.602 136.822 330.744 134.119 332.209 131.48C333.755 128.837 334.846 126.697 335.482 125.062C335.689 124.411 335.78 123.845 335.755 123.366C335.681 121.928 334.708 120.937 332.838 120.393C331.047 119.844 328.712 119.605 325.831 119.673L324.598 123.703C323.851 126.305 322.767 129.365 321.347 132.883C320.007 136.396 318.461 139.801 316.708 143.096C315.036 146.386 313.251 149.042 311.353 151.063C311.201 151.231 311.005 151.321 310.766 151.333C310.446 151.35 310.236 151.161 310.136 150.765C309.955 150.374 310.09 149.886 310.541 149.302C313.442 144.987 316 140.248 318.217 135.087C320.429 129.846 322.238 124.545 323.643 119.186C325.128 113.822 326.154 108.882 326.722 104.367C326.896 103.076 327.288 102.135 327.898 101.543C328.504 100.87 329.167 100.516 329.886 100.479C330.924 100.425 331.91 100.895 332.842 101.888C333.771 102.801 334.282 104.176 334.377 106.014C334.394 106.334 334.373 106.695 334.313 107.099C334.334 107.498 334.315 107.9 334.255 108.303C334.023 109.998 333.146 111.645 331.627 113.246C330.183 114.762 329.001 115.905 328.079 116.673C328.882 116.712 329.725 116.748 330.608 116.783C331.487 116.738 332.446 116.688 333.485 116.634C337.239 116.44 340.942 116.008 344.592 115.339C344.777 115.81 344.875 116.165 344.888 116.405C344.942 117.444 344.69 118.779 344.134 120.409C343.657 122.036 343.132 123.505 342.559 124.817C342.277 125.552 341.706 126.903 340.846 128.87C339.982 130.758 339.053 132.928 338.059 135.383C337.06 137.758 336.221 140.124 335.542 142.483C334.938 144.757 334.678 146.693 334.761 148.291C334.868 150.368 335.721 151.365 337.319 151.283C338.517 151.221 339.796 150.393 341.156 148.801C342.511 147.129 343.81 145.139 345.053 142.832C346.371 140.441 347.533 138.138 348.54 135.923C349.623 133.624 350.451 131.819 351.024 130.507C351.302 129.692 351.721 129.27 352.28 129.241C352.6 129.224 352.774 129.495 352.803 130.055C352.82 130.374 352.725 130.86 352.518 131.511C351.734 133.394 350.803 135.525 349.724 137.904C348.646 140.283 347.405 142.63 346.003 144.946C344.68 147.257 343.184 149.297 341.513 151.066C339.918 152.75 338.134 153.884 336.161 154.466C335.926 154.559 335.488 154.621 334.849 154.654ZM337.628 192.722C333.473 192.937 330.474 192.251 328.629 190.664C326.789 189.157 325.811 187.285 325.695 185.048C325.633 183.849 325.74 182.802 326.014 181.907C326.288 181.012 326.709 179.868 327.278 178.477C328.277 176.102 329.732 174.025 331.642 172.244C333.553 170.463 335.64 168.993 337.903 167.834C341.958 165.702 346.591 163.901 351.802 162.43C357.093 160.954 362.138 159.372 366.937 157.682C368.319 154.967 369.562 151.899 370.667 148.477C371.768 144.975 372.755 141.6 373.628 138.351C374.498 135.021 375.198 132.301 375.73 130.191C374.862 131.998 373.735 134.22 372.349 136.855C371.039 139.406 369.528 141.927 367.814 144.419C366.1 146.911 364.206 149.011 362.132 150.721C360.137 152.426 357.981 153.338 355.664 153.458C354.786 153.504 353.697 153.36 352.398 153.026C351.179 152.689 350.063 152.026 349.051 151.036C348.114 149.963 347.59 148.348 347.478 146.191C347.371 144.114 347.747 142.092 348.607 140.125C349.542 138.074 350.402 136.107 351.185 134.224C350.946 134.236 350.662 134.171 350.334 134.027C350.086 133.88 349.954 133.647 349.937 133.327C349.921 133.007 349.984 132.684 350.127 132.356C350.414 131.7 350.738 131.003 351.101 130.263C351.463 129.523 351.783 128.746 352.062 127.93C353.132 125.392 354.208 122.973 355.291 120.674C356.37 118.295 357.303 116.204 358.091 114.401C358.879 112.598 360.352 111.64 362.509 111.529L369.939 111.145C369.404 111.653 368.714 112.249 367.868 112.934C367.098 113.535 366.385 114.453 365.728 115.688C363.761 119.475 362.067 123.127 360.647 126.645C359.222 130.083 357.69 133.767 356.051 137.697C355.267 139.58 354.715 141.291 354.394 142.83C354.073 144.368 353.941 145.697 353.999 146.815C354.135 149.452 355.082 150.725 356.84 150.634C358.758 150.535 360.994 148.857 363.549 145.601C365.65 142.849 367.726 139.617 369.777 135.906C371.904 132.111 373.907 128.243 375.786 124.3C377.741 120.274 379.432 116.582 380.861 113.224C381.649 111.421 383.161 110.461 385.398 110.346L391.989 110.005C389.755 111.722 388.065 113.893 386.919 116.515C385.852 119.134 384.664 122.48 383.352 126.553C381.902 131.034 380.539 135.67 379.265 140.462C378.066 145.171 376.67 149.929 375.076 154.738C377.667 153.723 380.553 152.212 383.734 150.205C386.994 148.194 389.694 145.411 391.834 141.855C393.531 139.044 394.954 136.367 396.105 133.824C397.331 131.197 398.194 129.31 398.696 128.163C398.974 127.347 399.393 126.925 399.952 126.896C400.511 126.867 400.81 127.212 400.847 127.931C400.867 128.331 400.77 128.776 400.555 129.268C398.693 133.53 396.997 137.142 395.468 140.105C394.015 142.984 392.343 145.514 390.453 147.694C388.639 149.791 386.373 151.67 383.655 153.333C380.942 155.075 377.469 156.857 373.237 158.678C371.497 162.212 369.484 165.881 367.198 169.684C364.995 173.563 362.418 177.181 359.468 180.538C356.601 183.971 353.342 186.783 349.69 188.974C346.122 191.241 342.102 192.491 337.628 192.722ZM334.627 190.474C337.264 190.337 339.939 189.398 342.653 187.656C345.366 185.913 347.977 183.735 350.486 181.122C352.998 178.589 355.267 175.989 357.292 173.321C359.401 170.728 361.085 168.438 362.344 166.451C362.715 165.871 363.117 165.129 363.551 164.225C363.985 163.322 364.421 162.458 364.859 161.634C360.998 162.875 356.741 164.217 352.09 165.659C347.522 167.177 343.559 168.784 340.203 170.479C336.45 172.275 333.572 174.707 331.568 177.775C329.484 180.846 328.501 183.541 328.621 185.858C328.695 187.296 329.235 188.429 330.239 189.259C331.167 190.172 332.63 190.577 334.627 190.474Z" fill="#BDA97A"/>
<g clip-path="url(#clip0_4103_76518)">
<path d="M352.592 90.7791C384.501 82.8057 418.835 95.7496 449.841 82.6873C460.167 78.3382 473.54 70.3056 471.927 57.3321C470.7 47.5243 461.173 41.9325 452.77 48.0273C452.031 48.5598 452.741 49.7876 453.48 49.2551C464.472 41.2816 473.155 54.4326 469.96 64.3292C467.667 71.4594 459.546 76.3559 453.318 79.5512C443.155 84.7584 431.69 86.8146 420.374 87.3767C397.563 88.5158 374.796 84.0483 352.355 89.9951C351.837 90.1282 352.059 90.9419 352.577 90.8087H352.592V90.7791Z" fill="#BDA97A"/>
</g>
<g clip-path="url(#clip1_4103_76518)">
<path d="M66.7613 204.005C55.9623 205.026 50.3262 215.84 54.7937 225.766C58.9949 235.085 73.9655 236.106 82.7082 236.047C116.244 235.81 149.691 220.766 180.52 209.138C195.712 203.399 211.038 197.097 227.029 193.931C228.331 193.68 227.783 191.682 226.482 191.949C211.703 194.863 197.413 200.854 183.39 206.18C165.401 212.999 147.442 219.996 129.055 225.692C112.723 230.766 95.1195 235.692 77.8413 234.627C71.5246 234.242 62.8263 232.999 57.989 228.428C49.4386 220.322 56.1842 205.869 66.7761 204.73C67.2494 204.686 67.2494 203.946 66.7761 203.99L66.7613 204.005Z" fill="#BDA97A"/>
</g>
<defs>
<clipPath id="clip0_4103_76518">
<rect width="119.986" height="45.3111" fill="white" transform="translate(352.074 45.483)"/>
</clipPath>
<clipPath id="clip1_4103_76518">
<rect width="174.513" height="44.1276" fill="white" transform="translate(53.2559 191.934)"/>
</clipPath>
</defs>
</svg>
